# Blender 4.4.3
# www.blender.org
o Cube
v -99.999969 -100.000038 99.999992
v -100.000038 99.999954 100.000000
v -99.999954 -100.000046 -100.000000
v -100.000023 99.999962 -99.999992
v 100.000023 -99.999962 99.999992
v 99.999954 100.000046 100.000000
v 100.000038 -99.999954 -100.000000
v 99.999969 100.000038 -99.999992
vn 1.0000 -0.0000 -0.0000
vn -0.0000 -0.0000 1.0000
vn -1.0000 -0.0000 -0.0000
vn -0.0000 -0.0000 -1.0000
vn -0.0000 1.0000 -0.0000
vn -0.0000 -1.0000 -0.0000
vt 0.750000 0.334444
vt 1.000000 0.665556
vt 1.000000 0.334444
vt 0.499167 0.334444
vt 0.750000 0.665556
vt 0.251667 0.334444
vt 0.499167 0.665556
vt 0.000000 0.334444
vt 0.251667 0.665556
vt 0.251667 0.002222
vt 0.499167 0.002222
vt 0.499167 0.995556
vt 0.000000 0.665556
vt 0.251667 0.995556
s 0
f 3/1/1 2/2/1 1/3/1
f 7/4/2 4/5/2 3/1/2
f 5/6/3 8/7/3 7/4/3
f 1/8/4 6/9/4 5/6/4
f 1/10/5 7/4/5 3/11/5
f 6/9/6 4/12/6 8/7/6
f 3/1/1 4/5/1 2/2/1
f 7/4/2 8/7/2 4/5/2
f 5/6/3 6/9/3 8/7/3
f 1/8/4 2/13/4 6/9/4
f 1/10/5 5/6/5 7/4/5
f 6/9/6 2/14/6 4/12/6